<?xml version="1.0" encoding="UTF-8" standalone="no"?>
<svg
   version="1.0"
   width="1200px"
   height="1200px"
   viewBox="0 0 12000 12000"
   preserveAspectRatio="xMidYMid meet"
   id="svg16"
   sodipodi:docname="Democratic_Disc.svg"
   inkscape:version="1.1.2 (b8e25be833, 2022-02-05)"
   xmlns:inkscape="http://www.inkscape.org/namespaces/inkscape"
   xmlns:sodipodi="http://sodipodi.sourceforge.net/DTD/sodipodi-0.dtd"
   xmlns="http://www.w3.org/2000/svg"
   xmlns:svg="http://www.w3.org/2000/svg">
  <defs
     id="defs20" />
  <sodipodi:namedview
     id="namedview18"
     pagecolor="#ffffff"
     bordercolor="#666666"
     borderopacity="1.0"
     inkscape:pageshadow="2"
     inkscape:pageopacity="0.0"
     inkscape:pagecheckerboard="0"
     showgrid="false"
     inkscape:zoom="0.29958333"
     inkscape:cx="1612.2392"
     inkscape:cy="385.53547"
     inkscape:window-width="1465"
     inkscape:window-height="983"
     inkscape:window-x="558"
     inkscape:window-y="52"
     inkscape:window-maximized="0"
     inkscape:current-layer="svg16" />
  <g
     id="layer101"
     fill="#0044c9"
     stroke="none">
    <path
       d="M5615 11940 c-82 -5 -184 -13 -225 -19 -41 -6 -102 -13 -135 -16 -88 -9 -330 -49 -455 -75 -1424 -300 -2682 -1102 -3550 -2265 -772 -1035 -1180 -2264 -1180 -3555 0 -1294 406 -2516 1181 -3556 713 -957 1720 -1691 2844 -2072 467 -159 917 -252 1431 -297 232 -20 749 -20 982 0 1468 129 2785 759 3803 1820 772 804 1308 1829 1527 2920 84 417 116 744 116 1180 0 589 -74 1114 -239 1680 -29 100 -111 349 -125 380 -5 11 -30 74 -56 140 -25 66 -62 153 -80 193 -19 41 -34 76 -34 79 0 9 -180 363 -205 403 -14 22 -25 42 -25 46 0 7 -87 151 -171 284 -366 577 -879 1130 -1436 1548 -130 98 -446 311 -526 356 -26 14 -58 32 -70 40 -92 61 -570 297 -702 347 -27 11 -59 24 -70 29 -33 16 -179 70 -188 70 -5 0 -23 6 -40 14 -43 18 -107 40 -197 66 -41 12 -86 25 -100 30 -72 24 -328 91 -420 109 -170 34 -224 44 -305 57 -117 18 -314 43 -440 55 -143 13 -732 19 -910 9z"
       id="path2" />
  </g>
  <g
     id="layer102"
     fill="#ffffff"
     stroke="none">
    <path
       d="M5690 11354 c-742 -51 -1419 -233 -2061 -553 -1360 -679 -2368 -1899 -2774 -3361 -212 -760 -250 -1585 -110 -2377 163 -926 584 -1812 1205 -2538 140 -163 456 -477 615 -608 540 -450 1107 -768 1750 -982 608 -202 1156 -285 1810 -272 380 8 648 37 987 107 1058 221 2063 784 2789 1562 823 883 1294 1903 1436 3113 14 119 18 233 18 555 0 413 -5 498 -46 780 -198 1371 -915 2600 -2024 3465 -137 108 -471 330 -630 421 -406 230 -882 421 -1335 534 -446 111 -760 150 -1240 155 -184 1 -360 1 -390 -1z m2681 -1993 c106 -34 140 -74 331 -391 l75 -125 12 -320 c7 -176 17 -356 22 -400 10 -81 14 -91 65 -180 28 -48 29 -55 28 -165 -1 -107 -6 -133 -67 -375 -101 -400 -121 -520 -115 -679 3 -100 19 -136 60 -136 37 0 289 264 333 351 9 16 20 63 25 105 7 55 20 96 47 148 20 39 53 112 73 161 45 111 64 118 97 35 67 -170 41 -421 -49 -468 -60 -31 -186 -171 -278 -308 -103 -155 -154 -256 -184 -366 l-22 -79 -2035 0 c-1118 1 -2139 4 -2268 8 l-233 6 6 54 c4 30 58 258 121 507 70 280 118 489 125 551 6 55 14 255 17 445 5 329 4 348 -15 405 -32 93 -49 169 -72 310 -11 72 -25 145 -31 164 -7 19 -65 115 -131 214 -129 197 -208 343 -208 387 0 16 11 41 23 56 23 27 26 27 188 36 226 12 500 -1 534 -26 10 -7 21 -44 31 -106 8 -51 18 -98 21 -103 10 -17 81 0 125 31 73 50 79 49 146 -13 144 -133 372 -408 372 -449 0 -25 -41 -67 -113 -116 -74 -49 -116 -89 -137 -129 -10 -20 -44 -119 -76 -221 l-58 -185 1 -150 c0 -169 21 -291 74 -442 59 -167 174 -389 227 -437 20 -18 63 -23 537 -71 88 -9 241 -29 340 -46 216 -37 372 -43 422 -16 18 9 45 36 61 60 41 59 205 389 259 521 63 153 65 192 18 331 -20 61 -41 136 -46 169 -17 102 -70 188 -371 601 -273 375 -298 416 -298 486 0 98 181 160 409 138 157 -15 153 -11 299 -257 106 -177 173 -270 273 -379 107 -117 103 -107 107 -336 l4 -198 225 -222 c124 -122 236 -241 250 -265 37 -63 30 -141 -30 -304 -69 -189 -74 -210 -54 -242 12 -18 26 -26 46 -26 51 0 100 71 235 339 l124 246 10 369 9 369 -43 131 c-46 142 -59 208 -70 360 l-7 99 -156 161 c-86 89 -165 178 -174 199 -29 61 -1 115 84 162 75 41 98 44 249 41 105 -2 150 -8 201 -25z m532 -3461 c59 -302 82 -506 82 -720 l-1 -185 -37 -99 c-90 -243 -297 -525 -435 -595 -88 -44 -393 -171 -461 -192 -186 -56 -413 -3 -1396 327 l-409 137 -326 -6 c-358 -7 -420 -15 -518 -67 -57 -30 -106 -70 -419 -341 -354 -307 -470 -375 -835 -493 -128 -42 -248 -85 -266 -96 -57 -35 -65 -71 -66 -275 l-1 -180 -57 -165 c-93 -272 -144 -370 -194 -370 -27 0 -74 65 -157 220 -82 153 -89 177 -97 355 -8 169 -19 213 -60 235 -65 35 -170 -118 -313 -455 -98 -231 -125 -259 -198 -198 -62 53 -102 178 -119 378 -14 152 -3 260 34 339 12 28 66 108 119 178 52 70 99 137 102 149 10 30 0 60 -70 210 -76 163 -90 226 -105 467 -14 219 -23 267 -70 372 -70 158 -117 346 -127 511 -8 128 -1 159 47 208 100 102 354 172 503 137 137 -32 276 -111 419 -240 104 -92 165 -136 192 -136 12 0 44 11 72 25 137 68 323 296 436 532 l58 123 2323 2 c1277 2 2325 1 2328 -2 3 -3 13 -43 22 -90z"
       id="path5" />
    <path
       d="M8020 5753 c0 -4 23 -76 51 -160 36 -109 48 -157 41 -166 -6 -7 -67 -53 -135 -102 l-125 -90 168 -3 168 -2 55 -163 54 -162 53 162 52 163 169 2 170 3 -112 80 c-62 44 -123 89 -136 100 l-24 20 50 155 c28 85 49 155 47 157 -1 2 -63 -40 -136 -93 l-133 -96 -61 43 c-33 23 -96 69 -138 101 -43 31 -78 54 -78 51z"
       id="path7" />
    <path
       d="M4542 5738 c53 -142 98 -301 90 -311 -6 -7 -67 -53 -135 -102 l-125 -90 169 -3 168 -2 51 -158 c28 -86 53 -158 55 -160 2 -2 27 68 55 157 l51 161 170 2 170 3 -131 94 c-71 51 -132 97 -135 101 -2 4 18 77 45 161 27 84 47 155 46 157 -2 2 -63 -40 -135 -92 -72 -53 -133 -96 -135 -96 -3 0 -64 43 -136 95 -72 52 -133 95 -136 95 -4 0 -4 -6 -2 -12z"
       id="path9" />
    <path
       d="M5712 5739 c3 -8 24 -74 47 -146 23 -73 44 -139 47 -147 4 -9 -39 -46 -130 -113 l-136 -98 168 -3 169 -2 53 -163 53 -162 54 162 55 163 168 2 168 3 -134 95 c-121 85 -134 98 -129 120 2 14 24 87 49 163 24 75 42 137 39 137 -3 0 -60 -40 -127 -88 -66 -49 -126 -92 -133 -96 -7 -4 -63 30 -135 82 -148 107 -153 110 -146 91z"
       id="path11" />
    <path
       d="M6882 5738 c53 -142 98 -301 90 -311 -6 -7 -67 -53 -135 -102 l-125 -90 169 -3 168 -2 51 -158 c28 -86 53 -158 55 -160 2 -2 27 68 55 157 l51 161 170 2 170 3 -131 94 c-71 51 -132 97 -135 101 -2 4 18 77 45 161 27 84 47 155 46 157 -2 2 -63 -40 -135 -92 -72 -53 -133 -96 -135 -96 -3 0 -64 43 -136 95 -72 52 -133 95 -136 95 -4 0 -4 -6 -2 -12z"
       id="path13" />
  </g>
  <path
     style="fill:#0044c9;fill-opacity:1;stroke-width:1.66898"
     d="M 559.10987,1193.1662 C 478.67573,1186.0264 412.6343,1168.3959 344.59015,1135.8975 178.55718,1056.5989 56.891105,900.82101 20.105545,720.43622 11.002994,675.80019 9.3261031,657.45483 9.2494036,601.66898 9.1726883,545.87187 10.867283,527.09843 20.096325,481.50209 52.353657,322.13384 149.449,183.99058 291.95269,94.71599 302.57481,88.061524 324.03338,76.293497 339.63839,68.564821 426.70955,25.44117 520.24379,5.1323573 618.35883,8.0470802 707.61086,10.698508 786.58279,30.552983 866.20306,70.358043 c 36.19153,18.093461 58.88505,31.994357 88.80033,54.394607 63.60831,47.62924 114.83641,104.21439 155.25641,171.49213 44.224,73.60934 70.3258,151.30138 81.5847,242.83728 3.1435,25.55654 2.695,98.51749 -0.7847,127.67733 -19.0442,159.58872 -96.6723,299.2437 -222.21418,399.76891 -6.42559,5.1452 -25.1416,18.3654 -41.59115,29.3782 -74.98556,50.2025 -163.76665,83.0002 -254.65364,94.075 -19.85217,2.419 -97.55322,4.5994 -113.49096,3.1847 z m 123.08365,-62.1541 c 150.38467,-23.5218 282.14362,-108.1268 366.65268,-235.43501 44.2066,-66.59484 72.8216,-143.93905 84.6555,-228.8177 3.5085,-25.16467 3.005,-112.55883 -0.7884,-136.85675 C 1113.3425,405.82823 1065.6929,309.22224 981.75492,223.84571 900.10421,140.79566 794.14561,87.571946 675.10431,69.813028 c -28.84918,-4.303805 -118.02147,-4.303805 -146.87065,0 C 407.6879,87.796384 306.53025,138.52728 221.33262,223.7249 136.19904,308.85849 85.165948,414.04999 69.05251,537.61088 c -3.99227,30.61349 -3.988789,95.3782 0.0068,126.64503 11.051493,86.48145 39.06627,162.67771 85.3023,232.01032 89.48572,134.18707 226.12817,217.88427 388.05841,237.69617 6.88456,0.8423 36.17524,1.3012 65.0904,1.0197 43.11223,-0.4196 56.55185,-1.134 74.68309,-3.97 z"
     id="path10182"
     transform="scale(10)" />
  <path
     style="fill:#0044c9;fill-opacity:1;stroke-width:1.66898"
     d="m 417.87513,586.23088 c -17.10557,-33.99277 -44.1251,-60.87235 -55.20648,-54.92055 -1.65134,0.88695 -9.38631,6.9265 -17.18882,13.42124 -7.8025,6.49476 -19.06815,14.26441 -25.03477,17.26593 -9.85811,4.95914 -12.22323,5.4573 -25.90943,5.4573 -13.8843,0 -15.96988,-0.4564 -26.69325,-5.84145 -16.68974,-8.38122 -18.57884,-12.22186 -16.06663,-32.66417 1.79964,-14.64393 5.07668,-26.7385 13.35451,-49.28738 2.19562,-5.98089 4.33349,-18.78691 5.93223,-35.53454 2.36193,-24.74242 2.91714,-27.1559 10.0857,-43.84254 4.17239,-9.7123 7.58616,-18.79597 7.58616,-20.18593 0,-1.38996 -4.47032,-8.77684 -9.93404,-16.41529 -5.46373,-7.63845 -11.12678,-16.19459 -12.58458,-19.01365 -3.7003,-7.1556 -4.86555,-23.61134 -2.71994,-38.41116 2.66021,-18.34936 4.94417,-25.02496 10.44344,-30.52422 4.65087,-4.65088 5.08659,-4.76544 8.02177,-2.10914 1.70707,1.54488 6.64998,10.83371 10.98424,20.64184 14.04309,31.77857 23.05856,45.37122 30.09294,45.37122 5.67877,0 7.04871,-3.81297 8.83386,-24.58752 1.48178,-17.24416 2.09016,-19.42228 9.28258,-33.23347 9.66478,-18.55871 13.12553,-23.1131 16.56118,-21.79472 3.37401,1.29473 9.26233,12.93396 16.21401,32.04964 4.76413,13.1004 5.59966,17.87628 6.53507,37.35443 1.3209,27.50544 0.53184,26.59879 32.69522,37.56763 39.74031,13.55283 48.92811,19.23316 95.59512,59.10134 14.07128,12.02124 29.02233,23.52123 33.22456,25.55549 8.05172,3.89778 32.22316,6.201 67.13022,6.39662 15.67239,0.0878 16.1646,-0.0372 68.42838,-17.37697 91.28208,-30.28509 110.38255,-34.36722 129.86368,-27.75431 21.81163,7.404 46.29151,19.2376 53.46975,25.84734 9.77631,9.00204 25.26028,32.56976 31.97612,48.66993 l 5.53179,13.26159 -1.03197,24.20028 c -0.94865,22.24668 -3.39323,42.21089 -7.91908,64.67316 l -1.76547,8.76217 H 655.81364 423.96407 Z m 402.1314,-22.25541 9.71446,-7.05452 12.57498,9.02213 c 6.91624,4.96219 13.20663,9.02215 13.97862,9.02215 1.37876,0 -1.0273,-9.4789 -5.94169,-23.40773 -1.36877,-3.87952 -2.48867,-7.26018 -2.48867,-7.51258 0,-0.2524 6.10713,-4.85199 13.57138,-10.22131 l 13.5714,-9.76241 -15.65763,-1.27502 c -8.61168,-0.70128 -16.4268,-1.55143 -17.36692,-1.88923 -0.94012,-0.3378 -3.89998,-7.46899 -6.57745,-15.84709 -2.67749,-8.3781 -5.3825,-14.66287 -6.01112,-13.96615 -0.62864,0.69674 -3.19357,7.51704 -5.69983,15.15625 -2.50627,7.63923 -5.41594,14.20037 -6.46595,14.58033 -1.04999,0.37997 -8.87856,1.26461 -17.39681,1.96589 l -15.48771,1.27502 13.33509,9.63319 c 7.33428,5.29828 13.03235,10.55558 12.66233,11.6829 -2.65857,8.09996 -9.20835,29.93682 -9.20835,30.70053 0,1.12502 5.75811,-2.56331 18.89387,-12.10235 z m -350.9559,1.97921 12.45146,-9.01053 8.34492,6.02629 c 4.58971,3.31445 10.40106,7.5036 12.9141,9.30923 2.51306,1.80562 5.01802,2.8341 5.56662,2.28552 0.54858,-0.54859 -0.94428,-7.36324 -3.31744,-15.14367 -2.37318,-7.78044 -4.31488,-14.60862 -4.31488,-15.17374 0,-0.56512 6.14136,-5.52604 13.64747,-11.02428 l 13.64747,-9.9968 -6.55428,-0.0117 c -3.60486,-0.007 -11.59659,-0.48811 -17.75942,-1.07019 l -11.20513,-1.05832 -4.69195,-14.07585 c -2.58057,-7.7419 -5.40544,-14.07603 -6.27748,-14.07603 -0.87205,0 -3.70645,6.36272 -6.29867,14.13939 l -4.71313,14.13939 -17.01515,1.42389 -17.01515,1.4239 12.17246,8.84081 c 6.69483,4.86244 12.54222,9.80445 12.99418,10.98223 0.45196,1.17779 -1.07768,8.08956 -3.39922,15.35947 -2.32152,7.26993 -4.23054,13.78132 -4.24226,14.46978 -0.0436,2.5566 2.91971,1.03053 15.06548,-7.75881 z m 116.19588,0.48521 c 14.30874,-9.65544 13.15268,-9.73656 29.37174,2.06114 5.28623,3.84518 10.028,6.57455 10.53729,6.06526 0.50929,-0.50927 -1.05734,-7.42823 -3.48139,-15.37545 -5.1038,-16.73273 -5.55543,-15.57996 10.65679,-27.20031 l 11.06266,-7.92933 -17.02685,-1.42402 -17.02686,-1.42401 -5.22482,-15.68308 c -2.87365,-8.6257 -5.47648,-15.68308 -5.78405,-15.68308 -0.30758,0 -2.91041,7.05738 -5.78405,15.68308 l -5.22483,15.68308 -16.91376,1.42401 -16.91375,1.42402 12.82152,9.63636 c 7.05184,5.30001 12.82144,10.18179 12.82131,10.8484 -1.2e-4,0.66663 -1.86646,7.22038 -4.14741,14.56391 -4.38302,14.11112 -4.74466,15.85536 -3.28742,15.85536 0.50043,0 6.59518,-3.83641 13.54388,-8.52534 z m 118.35662,-0.8062 c 6.46392,-4.61258 11.81028,-7.29794 13.35187,-6.70639 1.4141,0.54266 7.44388,4.46377 13.3995,8.71361 5.9556,4.24983 11.29005,7.26532 11.8543,6.70105 0.56425,-0.56425 -0.93864,-7.5406 -3.33976,-15.50299 -2.40112,-7.9624 -3.98917,-15.08627 -3.529,-15.83083 0.46015,-0.74455 6.48309,-5.29608 13.3843,-10.11451 6.90121,-4.81843 11.93602,-8.91039 11.18843,-9.09325 -0.74757,-0.18285 -8.56009,-0.82322 -17.36116,-1.42302 l -16.00195,-1.09057 -4.75707,-14.8854 c -2.6164,-8.18696 -5.26621,-14.8854 -5.88848,-14.8854 -1.17208,0 -7.18543,15.62789 -9.20316,23.91782 -1.41619,5.81837 -1.33761,5.79045 -20.69395,7.35237 l -15.80108,1.27502 12.85307,9.17941 c 7.06919,5.04868 12.86535,10.36219 12.88036,11.80782 0.015,1.44561 -1.85034,8.14878 -4.14519,14.89594 -2.29486,6.74715 -4.17246,12.96739 -4.17246,13.82276 0,2.40332 4.23805,0.24644 15.98143,-8.13344 z"
     id="path10221"
     transform="scale(10)" />
  <path
     style="fill:#0044c9;fill-opacity:1;stroke-width:1.66898"
     d="m 793.37977,933.9337 c -6.70542,-4.08878 -10.48091,-9.51026 -9.42768,-13.53784 0.45612,-1.74419 8.25905,-11.01146 17.33985,-20.59395 14.11936,-14.8994 16.51238,-18.23152 16.52316,-23.00731 0.022,-9.76671 3.29717,-26.86252 7.72417,-40.31955 4.26515,-12.96507 4.28246,-13.24569 3.08753,-50.06954 l -1.20165,-37.03138 -12.4325,-24.62107 c -13.85007,-27.42844 -19.27162,-35.061 -24.3623,-34.29768 -7.20596,1.08049 -7.32651,5.1517 -0.74477,25.14948 8.91059,27.07366 8.98952,26.64806 -8.38349,45.21414 -8.03199,8.58357 -19.23691,19.87146 -24.89982,25.08418 l -10.2962,9.4777 -0.5522,20.6502 c -0.61789,23.10704 0.96187,19.41022 -18.91103,44.25381 -4.58971,5.7377 -13.23363,18.35316 -19.20871,28.03435 -5.97509,9.68122 -12.741,19.00373 -15.03539,20.71673 -9.01493,6.73063 -39.50567,5.38865 -49.10373,-2.16119 -5.20982,-4.09804 -5.53876,-10.20395 -0.95474,-17.72228 1.81866,-2.98283 12.59401,-18.37921 23.9452,-34.21419 33.28702,-46.43557 35.72709,-50.53361 40.55802,-68.11597 6.6159,-24.07899 6.96305,-26.90747 4.48888,-36.57526 -2.3672,-9.24986 -24.98602,-56.52287 -30.21213,-63.14298 -3.62788,-4.59557 -13.66901,-7.27491 -22.90578,-6.1121 -3.67176,0.46223 -20.57023,2.6424 -37.55215,4.8448 -16.98192,2.20241 -40.12279,4.93541 -51.42416,6.07334 -15.0686,1.51724 -21.58536,2.88498 -24.43832,5.12912 -5.05056,3.97277 -17.83407,28.79476 -23.45868,45.55018 -3.12865,9.32008 -4.87261,19.21377 -5.99081,33.98643 l -1.57738,20.83907 7.0021,21.87667 c 7.40514,23.13586 8.2496,24.42549 24.85248,37.95334 l 7.44089,6.06277 -3.00263,5.70145 c -3.52743,6.69794 -30.048,37.15845 -36.49671,41.91871 -4.44078,3.27807 -4.46345,3.27745 -10.21091,-0.27467 -8.31648,-5.13987 -14.21442,-4.74846 -15.51572,1.02968 -3.7569,16.68159 -3.71985,16.6179 -10.30137,17.70578 -8.25981,1.36529 -51.93276,1.36409 -58.76126,-0.002 -3.23192,-0.64639 -6.02746,-2.53786 -7.04208,-4.76469 -2.06875,-4.54044 0.42515,-9.73203 19.21682,-40.00403 12.50139,-20.1388 13.64072,-22.74439 16.42018,-37.55215 1.64269,-8.75151 4.59948,-22.41148 6.57064,-30.35551 3.448,-13.89585 3.51725,-15.95324 1.82559,-54.24201 l -1.75834,-39.7983 -9.40773,-38.38665 c -5.17424,-21.11266 -10.78873,-44.58276 -12.47664,-52.15577 l -3.06891,-13.76913 h 226.63103 226.63103 l 1.02014,5.4242 c 2.91491,15.4989 21.88548,45.54777 40.31529,63.85834 9.14762,9.08845 12.51136,13.66532 13.35732,18.1747 1.49746,7.98215 0.11566,27.29664 -2.39067,33.41596 -1.69919,4.14864 -2.32508,4.52329 -4.18238,2.50347 -3.24422,-3.52814 -16.0375,-33.9155 -16.0375,-38.09324 0,-1.98571 -1.07815,-6.19076 -2.39588,-9.34454 -3.1283,-7.48707 -30.50981,-35.88326 -34.60104,-35.88326 -4.1897,0 -6.39669,6.30801 -6.39669,18.28312 0,11.6442 3.25054,29.50278 11.10176,60.99366 3.20403,12.85118 6.24325,29.39811 6.75384,36.77095 0.84211,12.16014 0.52361,14.20381 -3.42921,22.00435 -5.09047,10.04557 -5.85667,15.84537 -7.5591,57.21913 l -1.27046,30.87622 -11.87054,19.19333 c -18.69754,30.23183 -23.44863,33.38391 -50.30357,33.37345 -12.82858,-0.005 -17.06625,-0.64204 -21.25296,-3.19497 z"
     id="path10260"
     transform="scale(10)" />
</svg>
